<svg width="58" height="58" viewBox="0 0 58 58" fill="none" xmlns="http://www.w3.org/2000/svg">
<path d="M50.75 38.6666V19.3333C50.7491 18.4857 50.5254 17.6533 50.1012 16.9194C49.677 16.1856 49.0674 15.5763 48.3333 15.1525L31.4167 5.4858C30.6819 5.06159 29.8484 4.83826 29 4.83826C28.1516 4.83826 27.3181 5.06159 26.5833 5.4858L9.66667 15.1525C8.93263 15.5763 8.32295 16.1856 7.89878 16.9194C7.47461 17.6533 7.25087 18.4857 7.25 19.3333V38.6666C7.25087 39.5142 7.47461 40.3467 7.89878 41.0805C8.32295 41.8143 8.93263 42.4237 9.66667 42.8475L26.5833 52.5141C27.3181 52.9384 28.1516 53.1617 29 53.1617C29.8484 53.1617 30.6819 52.9384 31.4167 52.5141L48.3333 42.8475C49.0674 42.4237 49.677 41.8143 50.1012 41.0805C50.5254 40.3467 50.7491 39.5142 50.75 38.6666Z" stroke="#EBEBEB" stroke-width="2" stroke-linecap="round" stroke-linejoin="round"/>
<path d="M7.90234 16.8199L28.9998 29.0241L50.0973 16.8199" stroke="#EBEBEB" stroke-width="2" stroke-linecap="round" stroke-linejoin="round"/>
<path d="M29 53.36V29" stroke="#EBEBEB" stroke-width="2" stroke-linecap="round" stroke-linejoin="round"/>
</svg>
