<svg width="120" height="18" viewBox="0 0 120 18" fill="none" xmlns="http://www.w3.org/2000/svg">
<path fill-rule="evenodd" clip-rule="evenodd" d="M9.00021 14.0788L4.72956 16.258C4.36189 16.4456 3.9381 16.1321 4.00993 15.7256L4.82164 11.1322L1.39708 7.89231C1.09282 7.60446 1.25613 7.09249 1.67088 7.034L6.41771 6.36454L8.55452 2.16227C8.73986 1.79777 9.26056 1.79777 9.4459 2.16227L11.5827 6.36454L16.3295 7.034C16.7443 7.09249 16.9076 7.60446 16.6033 7.89231L13.1788 11.1322L13.9905 15.7256C14.0623 16.1321 13.6385 16.4456 13.2709 16.258L9.00021 14.0788Z" fill="#FFBA49"/>
<path fill-rule="evenodd" clip-rule="evenodd" d="M28.0002 14.0788L23.7296 16.258C23.3619 16.4456 22.9381 16.1321 23.0099 15.7256L23.8216 11.1322L20.3971 7.89231C20.0928 7.60446 20.2561 7.09249 20.6709 7.034L25.4177 6.36454L27.5545 2.16227C27.7399 1.79777 28.2606 1.79777 28.4459 2.16227L30.5827 6.36454L35.3295 7.034C35.7443 7.09249 35.9076 7.60446 35.6033 7.89231L32.1788 11.1322L32.9905 15.7256C33.0623 16.1321 32.6385 16.4456 32.2709 16.258L28.0002 14.0788Z" fill="#FFBA49"/>
<path fill-rule="evenodd" clip-rule="evenodd" d="M47.0002 14.0788L42.7296 16.258C42.3619 16.4456 41.9381 16.1321 42.0099 15.7256L42.8216 11.1322L39.3971 7.89231C39.0928 7.60446 39.2561 7.09249 39.6709 7.034L44.4177 6.36454L46.5545 2.16227C46.7399 1.79777 47.2606 1.79777 47.4459 2.16227L49.5827 6.36454L54.3295 7.034C54.7443 7.09249 54.9076 7.60446 54.6033 7.89231L51.1788 11.1322L51.9905 15.7256C52.0623 16.1321 51.6385 16.4456 51.2709 16.258L47.0002 14.0788Z" fill="#FFBA49"/>
<path fill-rule="evenodd" clip-rule="evenodd" d="M66.0002 14.0788L61.7296 16.258C61.3619 16.4456 60.9381 16.1321 61.0099 15.7256L61.8216 11.1322L58.3971 7.89231C58.0928 7.60446 58.2561 7.09249 58.6709 7.034L63.4177 6.36454L65.5545 2.16227C65.7399 1.79777 66.2606 1.79777 66.4459 2.16227L68.5827 6.36454L73.3295 7.034C73.7443 7.09249 73.9076 7.60446 73.6033 7.89231L70.1788 11.1322L70.9905 15.7256C71.0623 16.1321 70.6385 16.4456 70.2709 16.258L66.0002 14.0788Z" fill="#FFBA49"/>
<path fill-rule="evenodd" clip-rule="evenodd" d="M85.0002 14.0788L80.7296 16.258C80.3619 16.4456 79.9381 16.1321 80.0099 15.7256L80.8216 11.1322L77.3971 7.89231C77.0928 7.60446 77.2561 7.09249 77.6709 7.034L82.4177 6.36454L84.5545 2.16227C84.7399 1.79777 85.2606 1.79777 85.4459 2.16227L87.5827 6.36454L92.3295 7.034C92.7443 7.09249 92.9076 7.60446 92.6033 7.89231L89.1788 11.1322L89.9905 15.7256C90.0623 16.1321 89.6385 16.4456 89.2709 16.258L85.0002 14.0788Z" fill="#FFBA49"/>
<path d="M101.252 15.04L101.732 14.524C100.424 13.192 99.704 11.776 99.704 9.82C99.704 7.852 100.424 6.448 101.732 5.104L101.252 4.6C99.644 5.944 98.744 7.744 98.744 9.82C98.744 11.884 99.644 13.696 101.252 15.04ZM104.449 13H105.385V4.756H104.629L102.601 6.136L103.009 6.832L104.449 5.896V13ZM110.66 13.144C112.664 13.144 114.08 11.38 114.08 8.872C114.08 6.376 112.664 4.612 110.66 4.612C108.644 4.612 107.228 6.376 107.228 8.872C107.228 11.38 108.644 13.144 110.66 13.144ZM110.66 12.28C109.208 12.28 108.176 10.864 108.176 8.872C108.176 6.88 109.208 5.476 110.66 5.476C112.112 5.476 113.132 6.88 113.132 8.872C113.132 10.864 112.112 12.28 110.66 12.28ZM115.825 15.04C117.433 13.696 118.333 11.884 118.333 9.82C118.333 7.744 117.433 5.944 115.825 4.6L115.345 5.104C116.653 6.448 117.373 7.852 117.373 9.82C117.373 11.776 116.653 13.192 115.345 14.524L115.825 15.04Z" fill="#9B9B9B"/>
</svg>
